<svg xmlns="http://www.w3.org/2000/svg" viewBox="0 0 640 480" role="img" aria-label="Premium duplex room">
  <rect width="640" height="480" fill="#eef9f4"/>
  <rect x="36" y="42" width="568" height="296" rx="24" fill="#ffffff"/>
  <rect x="82" y="78" width="210" height="170" rx="18" fill="#a5f3fc"/>
  <path d="M187 78v170M82 164h210" stroke="#fff" stroke-width="10"/>
  <rect x="420" y="76" width="116" height="232" rx="16" fill="#0f7a4d"/>
  <path d="M420 154h116M420 232h116" stroke="#bbf7d0" stroke-width="10"/>
  <rect x="104" y="286" width="320" height="78" rx="22" fill="#095436"/>
  <rect x="138" y="242" width="230" height="68" rx="18" fill="#f6d87c"/>
  <rect x="462" y="314" width="58" height="48" rx="16" fill="#fff8e6"/>
  <path d="M36 338h568v92c0 13-11 24-24 24H60c-13 0-24-11-24-24V338Z" fill="#7c5634"/>
</svg>
