<svg xmlns="http://www.w3.org/2000/svg" viewBox="0 0 640 480" role="img" aria-label="New duplex room">
  <rect width="640" height="480" fill="#edf5ff"/>
  <rect x="42" y="42" width="556" height="298" rx="24" fill="#ffffff"/>
  <rect x="384" y="74" width="150" height="226" rx="18" fill="#095436"/>
  <path d="M384 182h150M459 74v226" stroke="#bbf7d0" stroke-width="10"/>
  <rect x="96" y="102" width="160" height="120" rx="16" fill="#bfe9ff"/>
  <path d="M176 102v120M96 162h160" stroke="#fff" stroke-width="9"/>
  <rect x="90" y="286" width="306" height="76" rx="22" fill="#f6d87c"/>
  <rect x="122" y="244" width="218" height="66" rx="18" fill="#fef9e8"/>
  <rect x="446" y="316" width="62" height="44" rx="14" fill="#dff3e8"/>
  <path d="M42 340h556v90c0 13-11 24-24 24H66c-13 0-24-11-24-24V340Z" fill="#8a6241"/>
</svg>
